<svg width="250" height="70" viewBox="0 0 388 88" fill="none" xmlns="http://www.w3.org/2000/svg">
<path d="M39.547 3.2C47.783 3.2 55.309 5.898 62.196 11.223L55.735 22.441C51.191 17.897 45.866 15.625 39.547 15.625C33.299 15.625 27.974 17.897 23.572 22.441C19.17 26.985 16.969 32.452 16.969 38.7C16.969 45.232 19.17 50.699 23.572 55.172C27.974 59.574 33.299 61.846 39.547 61.846C45.014 61.846 50.126 59.858 54.812 55.882L65.959 62.414C59.143 70.295 50.339 74.2 39.547 74.2C29.749 74.2 21.513 70.792 14.626 63.905C7.81 57.018 4.402 48.64 4.402 38.7C4.402 28.902 7.81 20.524 14.626 13.566C21.513 6.679 29.749 3.2 39.547 3.2ZM141.191 14.063C142.824 17.471 143.605 20.879 143.605 24.287C143.605 30.322 141.546 35.363 137.499 39.339C133.381 43.315 128.482 45.374 122.66 45.374C122.305 45.374 122.163 45.374 122.376 45.374H99.4433V69.443V74.2H86.5923V69.443V45.374V32.736H99.4433H110.59H122.376V32.168C122.376 32.523 122.518 32.736 122.66 32.736C127.701 32.736 130.541 30.18 131.322 25.21V24.784V24.287C131.322 18.678 128.482 15.767 122.66 15.554H122.376H103.277H79.4213L72.6053 3.2H122.376H122.66C130.612 3.2 136.647 6.537 140.623 13.14V13.779H140.907H141.191V14.063ZM222.1 3.2V15.625H213.154H158.413L151.1 3.2H222.1ZM172.4 45.232V32.807H215.568H222.1V45.232H215.568H172.4ZM222.1 61.846V74.2H165.229L172.4 61.846H213.154H222.1ZM267.109 74.2L244.46 42.321L231.964 24.287V3.2L267.109 53.184L302.964 3.2V24.642V74.2H290.681V42.321L267.109 74.2ZM314.375 14.063H314.659V13.779L315.298 13.14C318.848 6.537 324.812 3.2 333.19 3.2H333.758V15.554H351.934H333.758H333.19C327.581 15.554 324.812 18.465 324.812 24.287V24.926V25.21C325.238 29.825 327.794 32.168 332.551 32.168H339.154H362.087H362.371C364.785 32.168 366.986 32.594 368.974 33.588C378.559 36.641 383.316 43.173 383.316 53.184C383.316 56.592 382.535 60 380.902 63.408V63.692H380.618H380.334V64.047V64.331C376.358 70.934 370.323 74.2 362.371 74.2H362.087H326.303L333.758 62.201V61.917H342.988H362.087H362.371C367.98 61.917 370.82 59.006 371.033 53.184V52.261C371.033 47.646 368.335 45.374 363.01 45.374H356.407H333.758H333.19C330.776 45.374 328.504 44.877 326.303 43.883C316.931 41.256 312.316 34.724 312.316 24.287C312.316 21.518 312.955 18.11 314.375 14.063Z" fill="white"/>
<g clip-path="url(#clip0_79_192)">
<rect x="19.5" y="19" width="40" height="40" rx="20" fill="#65558F"/>
<path d="M36.7502 49L36.3502 45.8C36.1335 45.7167 35.9294 45.6167 35.7377 45.5C35.546 45.3833 35.3585 45.2583 35.1752 45.125L32.2002 46.375L29.4502 41.625L32.0252 39.675C32.0085 39.5583 32.0002 39.4458 32.0002 39.3375V38.6625C32.0002 38.5542 32.0085 38.4417 32.0252 38.325L29.4502 36.375L32.2002 31.625L35.1752 32.875C35.3585 32.7417 35.5502 32.6167 35.7502 32.5C35.9502 32.3833 36.1502 32.2833 36.3502 32.2L36.7502 29H42.2502L42.6502 32.2C42.8669 32.2833 43.071 32.3833 43.2627 32.5C43.4544 32.6167 43.6419 32.7417 43.8252 32.875L46.8002 31.625L49.5502 36.375L46.9752 38.325C46.9919 38.4417 47.0002 38.5542 47.0002 38.6625V39.3375C47.0002 39.4458 46.9835 39.5583 46.9502 39.675L49.5252 41.625L46.7752 46.375L43.8252 45.125C43.6419 45.2583 43.4502 45.3833 43.2502 45.5C43.0502 45.6167 42.8502 45.7167 42.6502 45.8L42.2502 49H36.7502ZM38.5002 47H40.4752L40.8252 44.35C41.3419 44.2167 41.821 44.0208 42.2627 43.7625C42.7044 43.5042 43.1085 43.1917 43.4752 42.825L45.9502 43.85L46.9252 42.15L44.7752 40.525C44.8585 40.2917 44.9169 40.0458 44.9502 39.7875C44.9835 39.5292 45.0002 39.2667 45.0002 39C45.0002 38.7333 44.9835 38.4708 44.9502 38.2125C44.9169 37.9542 44.8585 37.7083 44.7752 37.475L46.9252 35.85L45.9502 34.15L43.4752 35.2C43.1085 34.8167 42.7044 34.4958 42.2627 34.2375C41.821 33.9792 41.3419 33.7833 40.8252 33.65L40.5002 31H38.5252L38.1752 33.65C37.6585 33.7833 37.1794 33.9792 36.7377 34.2375C36.296 34.4958 35.8919 34.8083 35.5252 35.175L33.0502 34.15L32.0752 35.85L34.2252 37.45C34.1419 37.7 34.0835 37.95 34.0502 38.2C34.0169 38.45 34.0002 38.7167 34.0002 39C34.0002 39.2667 34.0169 39.525 34.0502 39.775C34.0835 40.025 34.1419 40.275 34.2252 40.525L32.0752 42.15L33.0502 43.85L35.5252 42.8C35.8919 43.1833 36.296 43.5042 36.7377 43.7625C37.1794 44.0208 37.6585 44.2167 38.1752 44.35L38.5002 47ZM39.5502 42.5C40.5169 42.5 41.3419 42.1583 42.0252 41.475C42.7085 40.7917 43.0502 39.9667 43.0502 39C43.0502 38.0333 42.7085 37.2083 42.0252 36.525C41.3419 35.8417 40.5169 35.5 39.5502 35.5C38.5669 35.5 37.7377 35.8417 37.0627 36.525C36.3877 37.2083 36.0502 38.0333 36.0502 39C36.0502 39.9667 36.3877 40.7917 37.0627 41.475C37.7377 42.1583 38.5669 42.5 39.5502 42.5Z" fill="white"/>
</g>
<g clip-path="url(#clip1_79_192)">
<path d="M65.2819 27.707L54.0289 32.6819M45.1858 24.2214C53.4272 27.4097 57.5235 36.6752 54.3352 44.9166C51.1469 53.1579 41.8814 57.2542 33.64 54.0659C25.3987 50.8776 21.3024 41.6121 24.4907 33.3708C27.679 25.1294 36.9445 21.0331 45.1858 24.2214Z" stroke="#FCF4F4" stroke-width="4" stroke-linecap="round" stroke-linejoin="round"/>
</g>
<defs>
<clipPath id="clip0_79_192">
<rect x="19.5" y="19" width="40" height="40" rx="20" fill="white"/>
</clipPath>
<clipPath id="clip1_79_192">
<rect width="48" height="48" fill="white" transform="translate(10.957 51.724) rotate(-68.8503)"/>
</clipPath>
</defs>
</svg>
